
          <svg xmlns="http://www.w3.org/2000/svg" width="800" height="400" viewBox="0 0 800 400">
            <!-- https://grabient.com/HQJgjAnANMEBzWAVgMwppA7DTKAsMEYAbBktqGBSHHFCMsQSskgAxR7CZhxA/HQJgjAnANMEBzWAVgMwppA7DTKAsMEYAbBktqGBSHHFCMsQSskgAxR7CZhxA?style=angularGradient&steps=13&angle=45 -->
        
          <defs>
            <clipPath id="squareClip">
              <rect x="0" y="0" width="800" height="400" />
            </clipPath>
          </defs>
          <g clip-path="url(#squareClip)">
        <path d="
              M 400.000,200.000
              L 716.228,-116.228
              A 447.214,447.214 0 0 1 734.747,-96.555
              Z
            " fill="rgb(10, 74, 89)" fill-opacity="1.000" /><path d="
              M 400.000,200.000
              L 734.747,-96.555
              A 447.214,447.214 0 0 1 752.044,-75.800
              Z
            " fill="rgb(10, 75, 94)" fill-opacity="1.000" /><path d="
              M 400.000,200.000
              L 752.044,-75.800
              A 447.214,447.214 0 0 1 768.056,-54.038
              Z
            " fill="rgb(10, 76, 98)" fill-opacity="1.000" /><path d="
              M 400.000,200.000
              L 768.056,-54.038
              A 447.214,447.214 0 0 1 782.725,-31.348
              Z
            " fill="rgb(10, 77, 102)" fill-opacity="1.000" /><path d="
              M 400.000,200.000
              L 782.725,-31.348
              A 447.214,447.214 0 0 1 795.997,-7.815
              Z
            " fill="rgb(11, 78, 107)" fill-opacity="1.000" /><path d="
              M 400.000,200.000
              L 795.997,-7.815
              A 447.214,447.214 0 0 1 807.823,16.477
              Z
            " fill="rgb(11, 79, 111)" fill-opacity="1.000" /><path d="
              M 400.000,200.000
              L 807.823,16.477
              A 447.214,447.214 0 0 1 818.161,41.439
              Z
            " fill="rgb(11, 80, 115)" fill-opacity="1.000" /><path d="
              M 400.000,200.000
              L 818.161,41.439
              A 447.214,447.214 0 0 1 826.973,66.980
              Z
            " fill="rgb(11, 81, 120)" fill-opacity="1.000" /><path d="
              M 400.000,200.000
              L 826.973,66.980
              A 447.214,447.214 0 0 1 834.227,93.006
              Z
            " fill="rgb(11, 82, 124)" fill-opacity="1.000" /><path d="
              M 400.000,200.000
              L 834.227,93.006
              A 447.214,447.214 0 0 1 839.895,119.423
              Z
            " fill="rgb(12, 83, 129)" fill-opacity="1.000" /><path d="
              M 400.000,200.000
              L 839.895,119.423
              A 447.214,447.214 0 0 1 843.958,146.134
              Z
            " fill="rgb(12, 84, 133)" fill-opacity="1.000" /><path d="
              M 400.000,200.000
              L 843.958,146.134
              A 447.214,447.214 0 0 1 846.401,173.041
              Z
            " fill="rgb(12, 86, 137)" fill-opacity="1.000" /><path d="
              M 400.000,200.000
              L 846.401,173.041
              A 447.214,447.214 0 0 1 847.214,200.047
              Z
            " fill="rgb(12, 87, 142)" fill-opacity="1.000" /><path d="
              M 400.000,200.000
              L 847.214,200.047
              A 447.214,447.214 0 0 1 846.395,227.052
              Z
            " fill="rgb(13, 88, 146)" fill-opacity="1.000" /><path d="
              M 400.000,200.000
              L 846.395,227.052
              A 447.214,447.214 0 0 1 843.947,253.959
              Z
            " fill="rgb(13, 89, 151)" fill-opacity="1.000" /><path d="
              M 400.000,200.000
              L 843.947,253.959
              A 447.214,447.214 0 0 1 839.878,280.669
              Z
            " fill="rgb(13, 91, 155)" fill-opacity="1.000" /><path d="
              M 400.000,200.000
              L 839.878,280.669
              A 447.214,447.214 0 0 1 834.204,307.085
              Z
            " fill="rgb(13, 92, 159)" fill-opacity="1.000" /><path d="
              M 400.000,200.000
              L 834.204,307.085
              A 447.214,447.214 0 0 1 826.945,333.109
              Z
            " fill="rgb(14, 93, 164)" fill-opacity="1.000" /><path d="
              M 400.000,200.000
              L 826.945,333.109
              A 447.214,447.214 0 0 1 818.128,358.648
              Z
            " fill="rgb(14, 95, 168)" fill-opacity="1.000" /><path d="
              M 400.000,200.000
              L 818.128,358.648
              A 447.214,447.214 0 0 1 807.785,383.608
              Z
            " fill="rgb(14, 96, 172)" fill-opacity="1.000" /><path d="
              M 400.000,200.000
              L 807.785,383.608
              A 447.214,447.214 0 0 1 795.953,407.898
              Z
            " fill="rgb(15, 98, 177)" fill-opacity="1.000" /><path d="
              M 400.000,200.000
              L 795.953,407.898
              A 447.214,447.214 0 0 1 782.676,431.429
              Z
            " fill="rgb(15, 99, 181)" fill-opacity="1.000" /><path d="
              M 400.000,200.000
              L 782.676,431.429
              A 447.214,447.214 0 0 1 768.003,454.115
              Z
            " fill="rgb(15, 101, 185)" fill-opacity="1.000" /><path d="
              M 400.000,200.000
              L 768.003,454.115
              A 447.214,447.214 0 0 1 751.986,475.873
              Z
            " fill="rgb(16, 102, 190)" fill-opacity="1.000" /><path d="
              M 400.000,200.000
              L 751.986,475.873
              A 447.214,447.214 0 0 1 734.685,496.625
              Z
            " fill="rgb(16, 104, 194)" fill-opacity="1.000" /><path d="
              M 400.000,200.000
              L 734.685,496.625
              A 447.214,447.214 0 0 1 716.162,516.294
              Z
            " fill="rgb(16, 105, 198)" fill-opacity="1.000" /><path d="
              M 400.000,200.000
              L 716.162,516.294
              A 447.214,447.214 0 0 1 696.485,534.809
              Z
            " fill="rgb(16, 107, 202)" fill-opacity="1.000" /><path d="
              M 400.000,200.000
              L 696.485,534.809
              A 447.214,447.214 0 0 1 675.726,552.102
              Z
            " fill="rgb(17, 109, 207)" fill-opacity="1.000" /><path d="
              M 400.000,200.000
              L 675.726,552.102
              A 447.214,447.214 0 0 1 653.961,568.109
              Z
            " fill="rgb(17, 111, 211)" fill-opacity="1.000" /><path d="
              M 400.000,200.000
              L 653.961,568.109
              A 447.214,447.214 0 0 1 631.268,582.773
              Z
            " fill="rgb(17, 112, 215)" fill-opacity="1.000" /><path d="
              M 400.000,200.000
              L 631.268,582.773
              A 447.214,447.214 0 0 1 607.732,596.040
              Z
            " fill="rgb(18, 114, 219)" fill-opacity="1.000" /><path d="
              M 400.000,200.000
              L 607.732,596.040
              A 447.214,447.214 0 0 1 583.437,607.862
              Z
            " fill="rgb(18, 116, 223)" fill-opacity="1.000" /><path d="
              M 400.000,200.000
              L 583.437,607.862
              A 447.214,447.214 0 0 1 558.473,618.194
              Z
            " fill="rgb(18, 118, 227)" fill-opacity="1.000" /><path d="
              M 400.000,200.000
              L 558.473,618.194
              A 447.214,447.214 0 0 1 532.931,627.001
              Z
            " fill="rgb(19, 120, 231)" fill-opacity="1.000" /><path d="
              M 400.000,200.000
              L 532.931,627.001
              A 447.214,447.214 0 0 1 506.903,634.249
              Z
            " fill="rgb(19, 122, 234)" fill-opacity="1.000" /><path d="
              M 400.000,200.000
              L 506.903,634.249
              A 447.214,447.214 0 0 1 480.485,639.912
              Z
            " fill="rgb(20, 124, 238)" fill-opacity="1.000" /><path d="
              M 400.000,200.000
              L 480.485,639.912
              A 447.214,447.214 0 0 1 453.773,643.969
              Z
            " fill="rgb(20, 125, 241)" fill-opacity="1.000" /><path d="
              M 400.000,200.000
              L 453.773,643.969
              A 447.214,447.214 0 0 1 426.865,646.406
              Z
            " fill="rgb(20, 127, 245)" fill-opacity="1.000" /><path d="
              M 400.000,200.000
              L 426.865,646.406
              A 447.214,447.214 0 0 1 399.860,647.214
              Z
            " fill="rgb(21, 129, 248)" fill-opacity="1.000" /><path d="
              M 400.000,200.000
              L 399.860,647.214
              A 447.214,447.214 0 0 1 372.854,646.389
              Z
            " fill="rgb(21, 131, 252)" fill-opacity="1.000" /><path d="
              M 400.000,200.000
              L 372.854,646.389
              A 447.214,447.214 0 0 1 345.948,643.935
              Z
            " fill="rgb(21, 133, 255)" fill-opacity="1.000" /><path d="
              M 400.000,200.000
              L 345.948,643.935
              A 447.214,447.214 0 0 1 319.239,639.861
              Z
            " fill="rgb(22, 135, 255)" fill-opacity="1.000" /><path d="
              M 400.000,200.000
              L 319.239,639.861
              A 447.214,447.214 0 0 1 292.824,634.182
              Z
            " fill="rgb(22, 138, 255)" fill-opacity="1.000" /><path d="
              M 400.000,200.000
              L 292.824,634.182
              A 447.214,447.214 0 0 1 266.801,626.917
              Z
            " fill="rgb(22, 140, 255)" fill-opacity="1.000" /><path d="
              M 400.000,200.000
              L 266.801,626.917
              A 447.214,447.214 0 0 1 241.264,618.095
              Z
            " fill="rgb(23, 142, 255)" fill-opacity="1.000" /><path d="
              M 400.000,200.000
              L 241.264,618.095
              A 447.214,447.214 0 0 1 216.307,607.746
              Z
            " fill="rgb(23, 144, 255)" fill-opacity="1.000" /><path d="
              M 400.000,200.000
              L 216.307,607.746
              A 447.214,447.214 0 0 1 192.019,595.910
              Z
            " fill="rgb(24, 146, 255)" fill-opacity="1.000" /><path d="
              M 400.000,200.000
              L 192.019,595.910
              A 447.214,447.214 0 0 1 168.491,582.628
              Z
            " fill="rgb(24, 148, 255)" fill-opacity="1.000" /><path d="
              M 400.000,200.000
              L 168.491,582.628
              A 447.214,447.214 0 0 1 145.808,567.950
              Z
            " fill="rgb(24, 150, 255)" fill-opacity="1.000" /><path d="
              M 400.000,200.000
              L 145.808,567.950
              A 447.214,447.214 0 0 1 124.053,551.928
              Z
            " fill="rgb(25, 153, 255)" fill-opacity="1.000" /><path d="
              M 400.000,200.000
              L 124.053,551.928
              A 447.214,447.214 0 0 1 103.305,534.623
              Z
            " fill="rgb(25, 155, 255)" fill-opacity="1.000" /><path d="
              M 400.000,200.000
              L 103.305,534.623
              A 447.214,447.214 0 0 1 83.640,516.096
              Z
            " fill="rgb(26, 157, 255)" fill-opacity="1.000" /><path d="
              M 400.000,200.000
              L 83.640,516.096
              A 447.214,447.214 0 0 1 65.129,496.415
              Z
            " fill="rgb(26, 160, 255)" fill-opacity="1.000" /><path d="
              M 400.000,200.000
              L 65.129,496.415
              A 447.214,447.214 0 0 1 47.841,475.652
              Z
            " fill="rgb(27, 162, 255)" fill-opacity="1.000" /><path d="
              M 400.000,200.000
              L 47.841,475.652
              A 447.214,447.214 0 0 1 31.838,453.883
              Z
            " fill="rgb(27, 164, 255)" fill-opacity="1.000" /><path d="
              M 400.000,200.000
              L 31.838,453.883
              A 447.214,447.214 0 0 1 17.178,431.188
              Z
            " fill="rgb(27, 167, 255)" fill-opacity="1.000" /><path d="
              M 400.000,200.000
              L 17.178,431.188
              A 447.214,447.214 0 0 1 3.916,407.649
              Z
            " fill="rgb(28, 169, 255)" fill-opacity="1.000" /><path d="
              M 400.000,200.000
              L 3.916,407.649
              A 447.214,447.214 0 0 1 -7.900,383.352
              Z
            " fill="rgb(28, 171, 255)" fill-opacity="1.000" /><path d="
              M 400.000,200.000
              L -7.900,383.352
              A 447.214,447.214 0 0 1 -18.228,358.386
              Z
            " fill="rgb(29, 174, 255)" fill-opacity="1.000" /><path d="
              M 400.000,200.000
              L -18.228,358.386
              A 447.214,447.214 0 0 1 -27.029,332.841
              Z
            " fill="rgb(29, 176, 255)" fill-opacity="1.000" /><path d="
              M 400.000,200.000
              L -27.029,332.841
              A 447.214,447.214 0 0 1 -34.271,306.812
              Z
            " fill="rgb(30, 179, 255)" fill-opacity="1.000" /><path d="
              M 400.000,200.000
              L -34.271,306.812
              A 447.214,447.214 0 0 1 -39.929,280.393
              Z
            " fill="rgb(30, 181, 255)" fill-opacity="1.000" /><path d="
              M 400.000,200.000
              L -39.929,280.393
              A 447.214,447.214 0 0 1 -43.981,253.680
              Z
            " fill="rgb(30, 184, 255)" fill-opacity="1.000" /><path d="
              M 400.000,200.000
              L -43.981,253.680
              A 447.214,447.214 0 0 1 -46.412,226.772
              Z
            " fill="rgb(31, 186, 255)" fill-opacity="1.000" /><path d="
              M 400.000,200.000
              L -46.412,226.772
              A 447.214,447.214 0 0 1 -47.214,199.766
              Z
            " fill="rgb(31, 188, 255)" fill-opacity="1.000" /><path d="
              M 400.000,200.000
              L -47.214,199.766
              A 447.214,447.214 0 0 1 -46.384,172.761
              Z
            " fill="rgb(32, 191, 255)" fill-opacity="1.000" /><path d="
              M 400.000,200.000
              L -46.384,172.761
              A 447.214,447.214 0 0 1 -43.924,145.855
              Z
            " fill="rgb(32, 194, 255)" fill-opacity="1.000" /><path d="
              M 400.000,200.000
              L -43.924,145.855
              A 447.214,447.214 0 0 1 -39.844,119.146
              Z
            " fill="rgb(33, 196, 255)" fill-opacity="1.000" /><path d="
              M 400.000,200.000
              L -39.844,119.146
              A 447.214,447.214 0 0 1 -34.159,92.733
              Z
            " fill="rgb(33, 199, 255)" fill-opacity="1.000" /><path d="
              M 400.000,200.000
              L -34.159,92.733
              A 447.214,447.214 0 0 1 -26.889,66.712
              Z
            " fill="rgb(34, 201, 255)" fill-opacity="1.000" /><path d="
              M 400.000,200.000
              L -26.889,66.712
              A 447.214,447.214 0 0 1 -18.062,41.177
              Z
            " fill="rgb(34, 204, 255)" fill-opacity="1.000" /><path d="
              M 400.000,200.000
              L -18.062,41.177
              A 447.214,447.214 0 0 1 -7.708,16.221
              Z
            " fill="rgb(34, 206, 255)" fill-opacity="1.000" /><path d="
              M 400.000,200.000
              L -7.708,16.221
              A 447.214,447.214 0 0 1 4.134,-8.064
              Z
            " fill="rgb(35, 209, 255)" fill-opacity="1.000" /><path d="
              M 400.000,200.000
              L 4.134,-8.064
              A 447.214,447.214 0 0 1 17.421,-31.589
              Z
            " fill="rgb(35, 211, 255)" fill-opacity="1.000" /><path d="
              M 400.000,200.000
              L 17.421,-31.589
              A 447.214,447.214 0 0 1 32.104,-54.269
              Z
            " fill="rgb(36, 214, 255)" fill-opacity="1.000" /><path d="
              M 400.000,200.000
              L 32.104,-54.269
              A 447.214,447.214 0 0 1 48.129,-76.021
              Z
            " fill="rgb(36, 217, 255)" fill-opacity="1.000" /><path d="
              M 400.000,200.000
              L 48.129,-76.021
              A 447.214,447.214 0 0 1 65.440,-96.765
              Z
            " fill="rgb(37, 219, 255)" fill-opacity="1.000" /><path d="
              M 400.000,200.000
              L 65.440,-96.765
              A 447.214,447.214 0 0 1 83.971,-116.427
              Z
            " fill="rgb(37, 222, 255)" fill-opacity="1.000" /><path d="
              M 400.000,200.000
              L 83.971,-116.427
              A 447.214,447.214 0 0 1 103.655,-134.933
              Z
            " fill="rgb(38, 224, 255)" fill-opacity="1.000" /><path d="
              M 400.000,200.000
              L 103.655,-134.933
              A 447.214,447.214 0 0 1 124.422,-152.217
              Z
            " fill="rgb(38, 227, 255)" fill-opacity="1.000" /><path d="
              M 400.000,200.000
              L 124.422,-152.217
              A 447.214,447.214 0 0 1 146.194,-168.216
              Z
            " fill="rgb(39, 230, 255)" fill-opacity="1.000" /><path d="
              M 400.000,200.000
              L 146.194,-168.216
              A 447.214,447.214 0 0 1 168.892,-182.870
              Z
            " fill="rgb(39, 232, 255)" fill-opacity="1.000" /><path d="
              M 400.000,200.000
              L 168.892,-182.870
              A 447.214,447.214 0 0 1 192.434,-196.127
              Z
            " fill="rgb(40, 235, 255)" fill-opacity="1.000" /><path d="
              M 400.000,200.000
              L 192.434,-196.127
              A 447.214,447.214 0 0 1 216.734,-207.938
              Z
            " fill="rgb(40, 238, 255)" fill-opacity="1.000" /><path d="
              M 400.000,200.000
              L 216.734,-207.938
              A 447.214,447.214 0 0 1 241.702,-218.261
              Z
            " fill="rgb(41, 240, 255)" fill-opacity="1.000" /><path d="
              M 400.000,200.000
              L 241.702,-218.261
              A 447.214,447.214 0 0 1 267.248,-227.057
              Z
            " fill="rgb(41, 243, 255)" fill-opacity="1.000" /><path d="
              M 400.000,200.000
              L 267.248,-227.057
              A 447.214,447.214 0 0 1 293.279,-234.294
              Z
            " fill="rgb(42, 246, 255)" fill-opacity="1.000" /><path d="
              M 400.000,200.000
              L 293.279,-234.294
              A 447.214,447.214 0 0 1 319.699,-239.946
              Z
            " fill="rgb(42, 248, 255)" fill-opacity="1.000" /><path d="
              M 400.000,200.000
              L 319.699,-239.946
              A 447.214,447.214 0 0 1 346.413,-243.992
              Z
            " fill="rgb(43, 251, 255)" fill-opacity="1.000" /><path d="
              M 400.000,200.000
              L 346.413,-243.992
              A 447.214,447.214 0 0 1 373.322,-246.418
              Z
            " fill="rgb(43, 251, 255)" fill-opacity="1.000" /><path d="
              M 400.000,200.000
              L 373.322,-246.418
              A 447.214,447.214 0 0 1 400.328,-247.214
              Z
            " fill="rgb(44, 252, 255)" fill-opacity="1.000" /><path d="
              M 400.000,200.000
              L 400.328,-247.214
              A 447.214,447.214 0 0 1 427.333,-246.378
              Z
            " fill="rgb(44, 252, 255)" fill-opacity="1.000" /><path d="
              M 400.000,200.000
              L 427.333,-246.378
              A 447.214,447.214 0 0 1 454.238,-243.913
              Z
            " fill="rgb(45, 253, 255)" fill-opacity="1.000" /><path d="
              M 400.000,200.000
              L 454.238,-243.913
              A 447.214,447.214 0 0 1 480.946,-239.827
              Z
            " fill="rgb(45, 253, 255)" fill-opacity="1.000" /><path d="
              M 400.000,200.000
              L 480.946,-239.827
              A 447.214,447.214 0 0 1 507.358,-234.137
              Z
            " fill="rgb(46, 254, 255)" fill-opacity="1.000" /><path d="
              M 400.000,200.000
              L 507.358,-234.137
              A 447.214,447.214 0 0 1 533.378,-226.862
              Z
            " fill="rgb(46, 254, 255)" fill-opacity="1.000" /><path d="
              M 400.000,200.000
              L 533.378,-226.862
              A 447.214,447.214 0 0 1 558.911,-218.028
              Z
            " fill="rgb(47, 255, 255)" fill-opacity="1.000" /><path d="
              M 400.000,200.000
              L 558.911,-218.028
              A 447.214,447.214 0 0 1 583.864,-207.669
              Z
            " fill="rgb(42, 232, 234)" fill-opacity="1.000" /><path d="
              M 400.000,200.000
              L 583.864,-207.669
              A 447.214,447.214 0 0 1 608.146,-195.822
              Z
            " fill="rgb(37, 210, 214)" fill-opacity="1.000" /><path d="
              M 400.000,200.000
              L 608.146,-195.822
              A 447.214,447.214 0 0 1 631.669,-182.531
              Z
            " fill="rgb(33, 187, 193)" fill-opacity="1.000" /><path d="
              M 400.000,200.000
              L 631.669,-182.531
              A 447.214,447.214 0 0 1 654.346,-167.843
              Z
            " fill="rgb(28, 165, 172)" fill-opacity="1.000" /><path d="
              M 400.000,200.000
              L 654.346,-167.843
              A 447.214,447.214 0 0 1 676.094,-151.813
              Z
            " fill="rgb(24, 142, 151)" fill-opacity="1.000" /><path d="
              M 400.000,200.000
              L 676.094,-151.813
              A 447.214,447.214 0 0 1 696.835,-134.498
              Z
            " fill="rgb(19, 119, 131)" fill-opacity="1.000" /><path d="
              M 400.000,200.000
              L 696.835,-134.498
              A 447.214,447.214 0 0 1 716.493,-115.963
              Z
            " fill="rgb(14, 97, 110)" fill-opacity="1.000" />
          </g>
        </svg>
        